<svg xmlns="http://www.w3.org/2000/svg" width="256" height="256" viewBox="0 0 256 256" role="img" aria-label="Media Map Browser Logo">
  <defs>
    <linearGradient id="bg" x1="0" x2="1" y1="0" y2="1">
      <stop offset="0%" stop-color="#5aa98a" />
      <stop offset="100%" stop-color="#1f5947" />
    </linearGradient>
    <linearGradient id="pin" x1="0" x2="0" y1="0" y2="1">
      <stop offset="0%" stop-color="#ffffff" />
      <stop offset="100%" stop-color="#dff5ea" />
    </linearGradient>
  </defs>
  <rect x="12" y="12" width="232" height="232" rx="58" fill="url(#bg)" />
  <g fill="none" stroke="#d7f2e6" stroke-opacity="0.45" stroke-width="6">
    <path d="M44 82h168" />
    <path d="M44 128h168" />
    <path d="M44 174h168" />
    <path d="M86 44v168" />
    <path d="M128 44v168" />
    <path d="M170 44v168" />
  </g>
  <path d="M128 58c-31.4 0-57 24.9-57 55.6 0 34.4 43.4 78.8 52.9 88.1a6 6 0 0 0 8.2 0c9.5-9.3 52.9-53.7 52.9-88.1 0-30.7-25.6-55.6-57-55.6z" fill="url(#pin)" />
  <circle cx="128" cy="113" r="22" fill="#2b7059" />
  <path d="M118 105l20 8-20 8z" fill="#f4fff9" />
</svg>
